<svg enable-background="new 0 0 100 100" height="100" viewBox="0 0 100 100" width="100" xmlns="http://www.w3.org/2000/svg"><path d="m74.857 50.585c0 1.919-11.385 3.476-25.436 3.476-14.048 0-25.437-1.557-25.437-3.476 0-1.923 11.389-3.479 25.437-3.479 14.052-.001 25.436 1.556 25.436 3.479z" style="fill:#6c342c;stroke:#3e2426;stroke-width:1.5;stroke-linecap:round;stroke-linejoin:round;stroke-miterlimit:10"/><path d="m49.421 47.105c-1.275 0-2.526.014-3.75.038 12.272.248 21.686 1.693 21.686 3.441 0 1.745-9.414 3.189-21.686 3.438 1.224.024 2.475.038 3.75.038 14.051 0 25.436-1.557 25.436-3.476 0-1.922-11.384-3.479-25.436-3.479z" fill="#57261f"/><path d="m88.842 78.407c0 6.402-17.647 11.593-39.421 11.593-21.77 0-39.421-5.191-39.421-11.593 0 3.842 17.651 6.956 39.422 6.956 21.773 0 39.42-3.114 39.42-6.956z" style="fill:#fce9bb;stroke:#3e2426;stroke-width:1.5;stroke-linecap:round;stroke-linejoin:round;stroke-miterlimit:10"/><path d="m74.852 50.581c-.004 4.268-.836 8.54-2.494 12.547-1.6 3.865-3.963 7.497-7.104 10.643-.605.603-1.092 1.326-1.424 2.129-.32.771-.5 1.619-.5 2.508-4.285 1.778-8.98 2.771-13.913 2.771h.004c-4.932 0-9.628-.992-13.913-2.771 0-.889-.18-1.736-.499-2.508-.332-.803-.818-1.526-1.421-2.129-3.144-3.146-5.506-6.777-7.105-10.643-1.657-4.007-2.493-8.279-2.496-12.547l-.002.004c0 1.919 11.389 3.476 25.437 3.476 14.051 0 25.436-1.557 25.436-3.476z" style="fill:#fce9bb;stroke:#3e2426;stroke-width:1.5;stroke-linecap:round;stroke-linejoin:round;stroke-miterlimit:10"/><path d="m23.987 50.581-.002.004c0 .003.003.008.003.011 0-.005-.001-.009-.001-.015z" fill="#dacaa4"/><path d="m74.852 50.581c0 .016-.002.031-.002.048.002-.015.008-.029.008-.044z" fill="#dacaa4"/><path d="m68.514 52.88c-.25 3.844-1.115 7.659-2.611 11.272-1.729 4.182-4.285 8.11-7.684 11.513-.654.652-1.18 1.436-1.541 2.304-.328.794-.514 1.663-.533 2.574 2.494-.471 4.9-1.188 7.186-2.136 0-.889.18-1.736.5-2.508.332-.803.818-1.526 1.424-2.129 3.141-3.146 5.504-6.777 7.104-10.643 1.652-3.992 2.482-8.247 2.492-12.499-.08.863-2.456 1.65-6.337 2.252z" fill="#dacaa4"/><path d="m74.439 55.5c-.225 1.468-.518 2.925-.941 4.358h3.75c0-2.563 2.076-4.641 4.637-4.641s4.637 2.077 4.637 4.641c0 1.254-.252 2.449-.709 3.541-.469 1.13-1.154 2.15-2.01 3.005v.017c-.854.852-1.875 1.537-3.01 2.005-1.094.452-2.289.707-3.545.707l.002-.004c-3.383 0-6.596.672-9.545 1.865-.76.957-1.57 1.891-2.451 2.776-.35.348-.646.744-.906 1.164 4.016-1.495 8.355-2.325 12.902-2.325h-.002c1.729 0 3.373-.345 4.873-.965 1.563-.644 2.967-1.588 4.143-2.764v-.024c1.174-1.175 2.117-2.573 2.764-4.127.624-1.501.972-3.145.972-4.871 0-4.485-3.633-8.119-8.115-8.119v.003c-3.055 0-5.756 1.481-7.446 3.758z" style="fill:#fce9bb;stroke:#3e2426;stroke-width:1.5;stroke-linecap:round;stroke-linejoin:round;stroke-miterlimit:10"/><path d="m73.189 72.857c-3.078.341-6.041 1.033-8.842 2.077 0 0-.186.162-.518.965-.32.771-.5 1.619-.5 2.508-4.285 1.778-8.979 2.771-13.911 2.771-4.93 0-9.624-.992-13.913-2.771 0-.889-.18-1.736-.497-2.508-.332-.803-.818-1.526-1.423-2.129-.517-.521-.983-1.071-1.459-1.616-13.098 1.131-22.126 3.504-22.126 6.253 0 3.842 17.651 6.956 39.422 6.956 21.774 0 39.42-3.114 39.42-6.956 0-2.266-6.145-4.278-15.653-5.55z" style="fill:#f4f4f4;stroke:#3e2426;stroke-width:1.5;stroke-linecap:round;stroke-linejoin:round;stroke-miterlimit:10"/><path d="m73.189 72.857c-1.23.136-2.438.345-3.629.594 7.266 1.263 11.781 3.015 11.781 4.956 0 3.618-15.656 6.591-35.67 6.924 1.234.021 2.484.032 3.75.032 21.774 0 39.42-3.114 39.42-6.956.001-2.266-6.144-4.278-15.652-5.55z" fill="#d3d4d5"/><g style="stroke:#3e2426;stroke-width:1.5;stroke-linecap:round;stroke-linejoin:round;stroke-miterlimit:10;fill:none"><path d="m56.471 35.884c3.904 3.896 3.904 10.218 0 14.115 3.904-3.896 3.904-10.218 0-14.115z"/><path d="m51.117 10c-7.797 7.797-7.797 20.441 0 28.237h.002c3.25 3.25 3.25 8.513 0 11.762 3.25-3.249 3.25-8.513 0-11.762h-.002c-7.797-7.796-7.797-20.44 0-28.237z"/><path d="m42.353 42.94c0-7.797 6.32-14.116 14.118-14.116-7.798.001-14.118 6.319-14.118 14.116z"/><path d="m40.705 31.178c-1.949-4.706-1.805-9.757 0-14.119-1.805 4.362-1.95 9.413 0 14.119z"/></g><path d="m74.316 83.8c-5.861 3.273-16.887 5.62-29.894 6.104 1.638.061 3.304.096 4.999.096 21.774 0 39.42-5.191 39.42-11.593.001 2.176-5.661 4.117-14.525 5.393z" fill="#dacaa4"/><path d="m74.857 50.585c0 1.919-11.385 3.476-25.436 3.476-14.048 0-25.437-1.557-25.437-3.476 0-1.923 11.389-3.479 25.437-3.479 14.052-.001 25.436 1.556 25.436 3.479z" style="fill:none;stroke:#3e2426;stroke-width:1.5;stroke-linecap:round;stroke-linejoin:round;stroke-miterlimit:10"/><path d="m88.842 78.407c0 6.402-17.647 11.593-39.421 11.593-21.77 0-39.421-5.191-39.421-11.593 0 3.842 17.651 6.956 39.422 6.956 21.773 0 39.42-3.114 39.42-6.956z" style="fill:none;stroke:#3e2426;stroke-width:1.5;stroke-linecap:round;stroke-linejoin:round;stroke-miterlimit:10"/><path d="m74.852 50.581c-.004 4.268-.836 8.54-2.494 12.547-1.6 3.865-3.963 7.497-7.104 10.643-.605.603-1.092 1.326-1.424 2.129-.32.771-.5 1.619-.5 2.508-4.285 1.778-8.98 2.771-13.913 2.771h.004c-4.932 0-9.628-.992-13.913-2.771 0-.889-.18-1.736-.499-2.508-.332-.803-.818-1.526-1.421-2.129-3.144-3.146-5.506-6.777-7.105-10.643-1.657-4.007-2.493-8.279-2.496-12.547l-.002.004c0 1.919 11.389 3.476 25.437 3.476 14.051 0 25.436-1.557 25.436-3.476z" style="fill:none;stroke:#3e2426;stroke-width:1.5;stroke-linecap:round;stroke-linejoin:round;stroke-miterlimit:10"/><path d="m73.189 72.857c-3.078.341-6.041 1.033-8.842 2.077 0 0-.186.162-.518.965-.32.771-.5 1.619-.5 2.508-4.285 1.778-8.979 2.771-13.911 2.771-4.93 0-9.624-.992-13.913-2.771 0-.889-.18-1.736-.497-2.508-.332-.803-.818-1.526-1.423-2.129-.517-.521-.983-1.071-1.459-1.616-13.098 1.131-22.126 3.504-22.126 6.253 0 3.842 17.651 6.956 39.422 6.956 21.774 0 39.42-3.114 39.42-6.956 0-2.266-6.145-4.278-15.653-5.55z" style="fill:none;stroke:#3e2426;stroke-width:1.5;stroke-linecap:round;stroke-linejoin:round;stroke-miterlimit:10"/></svg>