<svg viewBox="0 0 400 300" xmlns="http://www.w3.org/2000/svg" xmlns:xlink="http://www.w3.org/1999/xlink"><linearGradient id="a" gradientUnits="userSpaceOnUse" x1="179.69" x2="212.55" y1="233.82" y2="176.65"><stop offset="0" stop-opacity="0"/><stop offset=".99" stop-color="#006837"/></linearGradient><linearGradient id="b" x1="133.83" x2="157.8" xlink:href="#a" y1="140.73" y2="129.59"/><linearGradient id="c" x1="263.75" x2="297.15" xlink:href="#a" y1="239.36" y2="211.42"/><linearGradient id="d" gradientUnits="userSpaceOnUse" x1="175.64" x2="196.9" y1="182.46" y2="157.05"><stop offset="0" stop-opacity="0"/><stop offset=".99" stop-color="#1a1a1a"/></linearGradient><path d="m45.4 175.13 181.96 104.95 121.19-70.91-181.5-104.79z" fill="#b5e5e1"/><path d="m269.91 210.91-78.84 48.07-76.6-45.73 74.9-46.11" fill="url(#a)" opacity=".32"/><path d="m140.47 127.35-56.06 31.22 15.08 8.39 57.06-32.36 8.33-5.47z" fill="url(#b)" opacity=".32"/><path d="m320.47 210.1-57.06 32.36-15.08-8.39 56.06-31.23" fill="url(#c)" opacity=".32"/><path d="m239.16 186.02v35.66h2.64l.57-36.59" fill="#808080"/><path d="m254.17 172.3 5.28 38.77h-2.64l-5.52-37.33" fill="#808080"/><path d="m200.86 199.41s-2.46 8.07-3 8.89-8.61 6.15-8.48 7.79 3.18 2.32 5.08 2.19 12.83-4.7 13.52-6 .68-12.83.68-12.83z" fill="#5c2d1d"/><path d="m213.82 208.85s-2.46 8.07-3 8.89-8.61 6.15-8.48 7.79 3.18 2.32 5.08 2.19 12.83-4.7 13.52-6 .68-12.83.68-12.83z" fill="#5c2d1d"/><path d="m255.6 135.44c-.7 2-4.65 31.7-4.65 31.7l-4-1.33 5.18-30.53" fill="#808080"/><path d="m254.17 172.3.07-4.79-4.24 1.45 1.29 4.78" fill="#a9cbf8"/><path d="m244.58 164.88s10.65 4.09 9.58 8.11-9.57 13.87-15 13-12.09-5.59-12.09-5.59" fill="#4a42a4"/><path d="m244.58 160s10.65 4.09 9.58 8.11-9.57 13.87-15 13-12.09-5.59-12.09-5.59" fill="#a6aced"/><path d="m248.8 122.64s10.29 2.57 11.33 8.49 1.34 16.84-13.26 12.6-7.71-15.21-7.71-15.21" fill="#a6aced"/><path d="m235.07 135.28s3.63 15.26.94 23.43-18 14.72-18 14.72l-6.45 32.85c-8.57 2.69-15.94-1.88-15.94-1.88s1.78-29 4.5-36.35 23.77-21.81 23.77-21.81" fill="#895851"/><path d="m235.69 154.69s-21.06 14.45-23.77 21.81-4.5 36.35-4.5 36.35 7.37 4.58 15.94 1.88l6.45-32.85s11-3.13 13.64-11.3 1.55-20.58 1.55-20.58" fill="#895851"/><path d="m244.06 155c3.59-8.74 5.15-31.45 2.92-34.19-4.61-5.67-14.33-5-14.33-5s-5.65-3.38-10.37.62c-3.52 3-1 21.26 0 32.88 6.15 5.69 12.95 7.27 21.78 5.69z" fill="#8cc63f"/><path d="m229 157.6c-3.79 3.78-7.85 7.43-11.38 11.46-3.06 3.5-4.27 7.95-5.46 12.35-2.77 10.26-4 20.85-5.23 31.38-.07.64.93.63 1 0 1.18-10.13 2.38-20.31 5-30.2 1.26-4.85 2.53-9.67 6-13.44s7.21-7.24 10.82-10.84a.5.5 0 0 0 -.75-.71z" fill="#5c2d1d"/><path d="m270.53 182.67 2-1.08-89.88-51.49-58.47 33.16.79.46v43.77a.44.44 0 0 0 .87 0v-43.25l86.47 50.52.21-.12v31.52a.44.44 0 0 0 .87 0v-32l56.53-31.16s0 0 0 0v27.86a.44.44 0 0 0 .87 0v-27.86a.39.39 0 0 0 -.26-.33z" fill="#68e1fd"/><path d="m270.53 182.67 2-1.08-89.88-51.49-58.47 33.16.79.46v43.77a.44.44 0 0 0 .87 0v-43.25l86.47 50.52.21-.12v31.52a.44.44 0 0 0 .87 0v-32l56.53-31.16s0 0 0 0v27.86a.44.44 0 0 0 .87 0v-27.86a.39.39 0 0 0 -.26-.33z" opacity=".15"/><path d="m68.27 158.55-17.89-13.64c-.51-.39-1 .48-.5.86l17.89 13.64c.51.39 1.01-.48.5-.86z" fill="#fa7202"/><g fill="#808080"><path d="m143.63 116.35a3 3 0 0 1 -1.23-.27l-.19 1.25 20 .51v-1.49z"/><path d="m142.39 116.13-.18 1.2 11.05 6.38v-1.55c-3.72-1.81-7.32-3.89-10.87-6.03z"/><path d="m153.55 29.82a3.19 3.19 0 0 1 -1.92-.28l-12.68 97.86c.77.47 1.57.89 2.35 1.33l12.83-99z"/><path d="m156.47 29.71a6.38 6.38 0 0 1 -1.39 0c-.37 0-.75 0-1.12.06l8.57 100.34a20.33 20.33 0 0 1 2-.85l.34-.17h.06z"/><path d="m155.08 29.72a11.51 11.51 0 0 0 -1.53.11 3.81 3.81 0 0 1 -.6 0l-.84 106a2.61 2.61 0 0 1 1.34-.11h.72.42l.84-106z"/></g><path d="m141.24 31.41v21.91s25.22.75 25.22 0v-21.91" fill="#68e1fd"/><ellipse cx="153.85" cy="31.36" fill="#68e1fd" rx="12.61" ry="5.84"/><ellipse cx="153.85" cy="31.36" opacity=".19" rx="12.61" ry="5.84"/><ellipse cx="153.85" cy="53.66" fill="#68e1fd" rx="12.61" ry="5.84"/><path d="m316.96 134.23 3.12-1.59-3.5-3.42z" fill="#d64338"/><path d="m273.91 65.71 3.13-1.59 1.23 4.11z" fill="#d64338"/><path d="m277.04 64.12 43.04 24.85v43.67l-43.04-25.84z" fill="#d64338"/><path d="m273.91 65.71 43.05 24.85v43.67l-43.05-25.84z" fill="#ff6753"/><path d="m278.74 73.4 33.39 19.27v33.88l-33.39-20.05z" fill="#fff"/><path d="m285.65 86.69-.07.98v14.77l17.43 9.66v-15.39z" fill="#68e1fd"/><path d="m298.26 194.04v13.73h22.21v-13.73" fill="#68e1fd"/><ellipse cx="309.36" cy="194.05" fill="#68e1fd" rx="11.11" ry="5.46"/><ellipse cx="309.36" cy="194.05" opacity=".19" rx="11.11" ry="5.46"/><ellipse cx="309.36" cy="208.31" fill="#68e1fd" rx="11.11" ry="5.46"/><path d="m321.8 162.13c-2.34-1-5.59-4.15-8.43-4.05a33.19 33.19 0 0 0 -1.72 8.43 76.47 76.47 0 0 0 -.32 14.07q.1 1.57.26 3.13a2.49 2.49 0 0 0 .25.88q0 5.43 0 10.87a.35.35 0 0 0 .69 0q0-5.23 0-10.45a15.41 15.41 0 0 0 3.18-1.47 10.82 10.82 0 0 0 4.47-5.62c1.79-5 .66-10.56 2.36-15.5-.25-.11-.54-.19-.74-.29z" fill="#297600"/><path d="m317 153.95a8.7 8.7 0 0 0 -3.17 3.24 5.44 5.44 0 0 0 -.5 1l-.1.21a14.52 14.52 0 0 0 -.53 1.72 2.15 2.15 0 0 1 1.18-.93 2.94 2.94 0 0 1 1.85-.17 7.77 7.77 0 0 1 1.7.91c.79.48 1.55 1 2.34 1.51 3.68 2.34 8.58 2.58 11.42-.83 0-.13.07-.27.1-.41.41-2.36-6.16-10.98-14.29-6.25z" fill="#5fad00"/><path d="m329.55 162 .46-.3a.31.31 0 0 0 -.09-.26c-2.22-2.28-4.61-4.52-7.65-5.65a13.11 13.11 0 0 0 -6.83-.67c-.25.29-.47.59-.69.89a11.87 11.87 0 0 1 7.86.65 22 22 0 0 1 6.84 5.26.33.33 0 0 0 .1.08z" fill="#297600"/><path d="m292.27 167a9.27 9.27 0 0 0 -5 8.9c.26 6.55 11.06.16 13.93-5.37s3.32 2.36 3.32 2.36" fill="#297600"/><path d="m302 164.71a19.55 19.55 0 0 0 -6 .83 14.54 14.54 0 0 0 -3.73 1.46 12 12 0 0 0 2.16 1.15 6.56 6.56 0 0 1 3.49 2.5 5 5 0 0 1 .42 1c.66 2.16.09 4.77 1 6.94s2.7 4.08 5.25 4.24c3 .19 4.44-2.74 5-5.27s1.42-6 .46-8.58c-1.11-3.04-5.18-4.13-8.05-4.27z" fill="#5fad00"/><path d="m306 174.94c-1.28-4.14-4-8-7.95-9.88h-.15l-.19.06-.72.19c4.61 1.71 7.51 6.26 8.7 10.91 1.51 5.95 1 12.39 1 18.47a.32.32 0 0 0 .64 0c.01-6.49.61-13.46-1.33-19.75z" fill="#297600"/><path d="m134.6 113.24v39.42l-30.53 17.62-24.87-14.78v-36.63" fill="#4a42a4"/><path d="m104.07 170.28v-38.89l-24.87-11.02v35.13z" fill="#4a42a4"/><path d="m79.2 116.83v3.54l2.36.72 1.57-2.4" fill="#9093d3"/><path d="m109.46 101.89 25.14 14.89-31.44 18.15c-.93.54-24-14.56-24-14.56z" fill="#9093d3"/><path d="m134.6 116.78v-3.54l-4.52-2.25.56 6.3" fill="#9093d3"/><path d="m109.46 98.34 25.14 14.89-31.44 18.15c-.93.54-24-14.56-24-14.56z" fill="#a6aced"/><path d="m130.22 124.36v8.16l-22.88 13.04v-8z" fill="#7374b7"/><path d="m130.52 136.55v8.16l-22.88 13.05v-8z" fill="#7374b7"/><ellipse cx="119.81" cy="134.55" fill="#ffb883" rx="1.46" ry="1.03" transform="matrix(.09497707 -.99547946 .99547946 .09497707 -25.51 241.04)"/><ellipse cx="120.75" cy="146.31" fill="#ffb883" rx="1.46" ry="1.03" transform="matrix(.09497707 -.99547946 .99547946 .09497707 -36.37 252.62)"/><path d="m100.87 132.68v39.42l-30.54 17.63-24.86-14.79v-36.63" fill="#4a42a4"/><path d="m70.33 189.73v-38.9l-24.86-11.02v35.13z" fill="#4a42a4"/><path d="m45.47 136.27v3.54l2.36.72 1.57-2.4" fill="#9093d3"/><path d="m75.73 121.33 25.14 14.89-31.44 18.16c-.93.54-24-14.56-24-14.56z" fill="#9093d3"/><path d="m100.87 136.22v-3.54l-4.53-2.24.56 6.29" fill="#9093d3"/><path d="m75.73 117.79 25.14 14.89-31.44 18.15c-.93.54-24-14.56-24-14.56z" fill="#a6aced"/><path d="m96.48 143.8v8.16l-22.88 13.05v-8.01z" fill="#7374b7"/><path d="m96.78 155.99v8.16l-22.87 13.05v-8z" fill="#7374b7"/><ellipse cx="86.07" cy="153.99" fill="#ffb883" rx="1.46" ry="1.03" transform="matrix(.09497707 -.99547946 .99547946 .09497707 -75.4 225.05)"/><ellipse cx="87.01" cy="165.75" fill="#ffb883" rx="1.46" ry="1.03" transform="matrix(.09497707 -.99547946 .99547946 .09497707 -86.25 236.63)"/><path d="m180.35 161.65-28.24 15.73c4.72 3 23.71 13.2 28.27 16.41l29.19-18.68-4.81-11.69z" fill="url(#d)" opacity=".32"/><path d="m203.68 178.55 20.56-11.99-26.8-15.4-21.01 10.82" fill="#b3b3b3"/><path d="m198.35 154.91s5.4 23.93 5.32 23.64-26.67-14.55-26.8-15.08-7-24.79-7-24.79z" fill="#fff"/><path d="m190.59 150.49 5.54-3.34 6.59 5.5-4.96 2.08z" fill="#ffe0ce"/><path d="m193.65 146.7s7.33 2.58 6.72 9.37c0 0 11.43-4.76 14-7.79s7.93-9.6 7.93-9.6v-22.24s-13.83 21.48-16.82 24.07c-2.48 2.08-11.83 6.19-11.83 6.19z" fill="#8cc63f"/><path d="m231.5 112.78c0 1.87 0 3.74-.05 5.61.34.86.81 1.45 1.49 1.38 2.23-.24 4.88-3.57 4.88-3.57l.39-5.2z" fill="#f9c7af"/><path d="m242.35 99.87c-1.39-3-4.13-3.57-7-3a6.21 6.21 0 0 0 -2.14-1 6.72 6.72 0 0 0 -6.77 2.19 4.56 4.56 0 0 0 -2.27.3c-2.13.9-2.39 3.17-1.89 5.16 0 .08 0 .15.08.23.22 3.53 3.66 5 3.66 5l11.05 5.51a8 8 0 0 0 2.94-2.76 4.26 4.26 0 0 0 .45-1.45 1.68 1.68 0 0 0 .22-.22c2.18-2.74 3.19-6.67 1.67-9.96z" fill="#895851"/><path d="m225.77 105.94c.28 1.18 2.27 12.38 7.32 11.44s5.37-8.4 5.37-8.4-4.58-1.24-4.94-3-.18-2.47-2.42-2.93-5.8.95-5.33 2.89z" fill="#ffe0ce"/><path d="m221.36 139.8-.72-10.94-3.31 15.83z" fill="#6d9928"/><path d="m221.74 158.45a3.67 3.67 0 0 0 -1.26.38c-1.2.58-2.52 1-3.71 1.6a12.26 12.26 0 0 0 -4.65 4.88c-.24.53-1.26 2.44-.73 3s1.73 0 1.73 0-.06 1.1.32 1.35 1.56-.66 1.56-.66.52 1.34 1.25 1 2-2.24 2-2.24-.14 1.47.5 1.47 3.36-3.74 3.36-3.74l5.75-3s-1.7-1.84-1.87-2a8.71 8.71 0 0 0 -2.7-1.83 3.35 3.35 0 0 0 -1.55-.21z" fill="#ffe0ce"/><path d="m220.75 163.31a13.09 13.09 0 0 0 -2.86 4.9c-.07.22.28.32.35.1a12.65 12.65 0 0 1 2.77-4.73c.16-.19-.1-.45-.26-.27z" fill="#5c2d1d"/><path d="m219.07 162.18a14.14 14.14 0 0 0 -4.24 7.07.18.18 0 0 0 .35.1 13.8 13.8 0 0 1 4.14-6.91c.18-.16-.08-.44-.25-.26z" fill="#5c2d1d"/><path d="m217.36 161.79a14.84 14.84 0 0 0 -4.42 6.59c-.08.22.28.32.35.1a14.48 14.48 0 0 1 4.33-6.42c.17-.16-.09-.42-.26-.27z" fill="#5c2d1d"/><path d="m247.31 139.5s-2.11 13.47-4.95 16.57-15.3 8.63-15.3 8.63-3.12-5.49-6.43-6.79c0 0 12.71-7.14 13-8.49" fill="#8cc63f"/><path d="m236.86 130.48c-.21 2.91-.51 5.8-.93 8.68a41.74 41.74 0 0 1 -1.41 7.65c-.93 2.65-4.47 4.22-6.72 5.68s-4.77 3-7.18 4.52c-.55.33 0 1.2.5.86q4.23-2.58 8.37-5.29c1.87-1.23 4.72-2.5 5.71-4.65 1.08-2.34 1.25-5.51 1.63-8 .47-3.12.81-6.26 1-9.41.08-.68-.92-.68-.97-.04z" fill="#6d9928"/></svg>