<svg viewBox="0 0 400 300" xmlns="http://www.w3.org/2000/svg" xmlns:xlink="http://www.w3.org/1999/xlink"><linearGradient id="a" gradientUnits="userSpaceOnUse" x1="39.99" x2="103.01" y1="207.44" y2="154.67"><stop offset=".01" stop-color="#2e3192" stop-opacity="0"/><stop offset="1" stop-color="#666"/></linearGradient><linearGradient id="b" x1="218.77" x2="253.42" xlink:href="#a" y1="189.64" y2="137.84"/><linearGradient id="c" x1="132.88" x2="163.47" xlink:href="#a" y1="243.41" y2="215.15"/><linearGradient id="d" x1="206.12" x2="233.21" xlink:href="#a" y1="259.79" y2="235.91"/><path d="m197.45 282.06 162.36-96c5.17-2.9 9.6-7.67 4.56-10.79l-162.94-93.87c-2.44-1.51-6.16-2.51-8.64-1.06l-170.44 98.91c-5.17 3-6.1 11.39-.92 14.39l154.57 88.27a21.59 21.59 0 0 0 21.45.15z" fill="#feb2d8"/><path d="m123.71 162.68-6.38-8.86-8.33-2.93-12.8 5.65-68.12 35.54 25.39 13.62c10.37-5.96 60.05-36.7 70.24-43.02z" fill="url(#a)" opacity=".48"/><path d="m316.43 176.5-87.09 45.34-87.22-50.48 85.92-50.04" fill="url(#b)" opacity=".48"/><path d="m224.62 124.87 91.81 51.88v-105.87l-91.54-52.86z" fill="#8fdb5e"/><path d="m215.44 130.28 91.81 51.87v-105.86l-91.55-52.86z" fill="#f29d40"/><path d="m205.36 134.52 91.81 51.87v-105.86l-91.54-52.86z" fill="#68e1fd"/><path d="m142.53 213.67c-11.82 6.89-24 13-35.84 19.86l40.46 21.92 30.41-19.25z" fill="url(#c)" opacity=".48"/><ellipse cx="250.2" cy="94.51" fill="#fff" rx="17.52" ry="25.29" transform="matrix(.98453377 -.1751949 .1751949 .98453377 -12.69 45.29)"/><path d="m259.07 85.89-13.5 13.86-4-4.26c-1.08 1.18-1.36 1.47-2.51 2.58l6.78 7.89 15.51-17.41z" fill="#1e8c0e"/><g fill="#fff"><path d="m232.4 134.37a7.54 7.54 0 0 1 .38 2.45c0 1.74-.59 2.68-1.41 2.78a2.29 2.29 0 0 1 -1.38-.38 5.43 5.43 0 0 1 -2.37-3.13 7.54 7.54 0 0 1 -.37-2.45c0-1.74.59-2.68 1.41-2.77a2.27 2.27 0 0 1 1.37.36 5.37 5.37 0 0 1 2.37 3.14zm-1.21 3.53a2.23 2.23 0 0 0 .49-1.72 4.92 4.92 0 0 0 -.47-2.25 3 3 0 0 0 -1.18-1.34 1 1 0 0 0 -1.19 0 2.31 2.31 0 0 0 -.47 1.71 5 5 0 0 0 .45 2.26 3.08 3.08 0 0 0 1.18 1.35 1 1 0 0 0 1.19 0"/><path d="m237.22 123.71a7.54 7.54 0 0 1 .38 2.45c0 1.74-.59 2.68-1.41 2.78a2.29 2.29 0 0 1 -1.38-.38 5.43 5.43 0 0 1 -2.37-3.13 7.56 7.56 0 0 1 -.38-2.45c0-1.74.6-2.68 1.41-2.76a2.24 2.24 0 0 1 1.37.36 5.38 5.38 0 0 1 2.38 3.13zm-1.22 3.53a2.23 2.23 0 0 0 .49-1.72 4.92 4.92 0 0 0 -.47-2.25 3 3 0 0 0 -1.18-1.34 1 1 0 0 0 -1.19 0 2.27 2.27 0 0 0 -.48 1.71 5 5 0 0 0 .46 2.26 3.08 3.08 0 0 0 1.18 1.35 1 1 0 0 0 1.19 0"/><path d="m241.4 128.76 1.61 4.43-1.21-.7-1.56-4.27-.57-.33v3.37l-1.09-.63v-7.81l2.13 1.23a3.66 3.66 0 0 1 1.77 3.24c.02 1.05-.38 1.59-1.08 1.47zm-.68-1.61c.46.27.69.11.69-.49a1.34 1.34 0 0 0 -.68-1.27l-1.05-.61v1.76l1.05.61"/><path d="m245.65 126.88a6.2 6.2 0 0 1 2.71 5.47c0 2.73-1.37 3.13-2.75 2.34l-1.83-1.05v-7.81zm1 6.53c.4-.13.65-.7.65-1.7a4.35 4.35 0 0 0 -.63-2.43 3.9 3.9 0 0 0 -1.37-1.28l-.41-.23v5.13l.41.23a1.62 1.62 0 0 0 1.33.26"/><path d="m252.99 131.09-.01 1.34-2.54-1.45v1.63l2.03 1.17-.01 1.34-2.03-1.17-.01 2.16 2.62 1.5-.01 1.34-3.71-2.13.04-7.81z"/><path d="m256.87 137.65 1.61 4.43-1.22-.7-1.55-4.27-.57-.33v3.37l-1.09-.63v-7.81l2.13 1.23a3.67 3.67 0 0 1 1.77 3.24c.05 1.05-.37 1.6-1.08 1.47zm-.67-1.6c.46.26.69.11.69-.49a1.35 1.35 0 0 0 -.68-1.27l-1.05-.61v1.76l1.05.61"/><path d="m224.07 127.81a5.18 5.18 0 0 1 2.42 3.76l-1-.24a3.23 3.23 0 0 0 -1.44-2.19 1 1 0 0 0 -1.2 0 2.35 2.35 0 0 0 -.47 1.71 5.06 5.06 0 0 0 .45 2.24 3.08 3.08 0 0 0 1.2 1.37c.71.41 1.19.23 1.45-.53l1 .9c-.28 1.34-1.17 1.7-2.44 1a5.26 5.26 0 0 1 -2-2.19 7.11 7.11 0 0 1 -.79-3.4 3 3 0 0 1 .81-2.47 1.7 1.7 0 0 1 2.01.04z"/><path d="m239.17 136.57-.04 7.81-1.08-.62.02-4.82-1.14 3.45-.79-.45-1.1-4.74-.03 4.82-1.08-.63.03-7.81 1.23.71 1.35 5.66 1.41-4.07z"/><path d="m242.59 138.54a3.82 3.82 0 0 1 1.81 3.46c0 1.43-.65 2-1.84 1.33l-1.12-.65v3.05l-1.09-.63v-7.81zm-.06 3.39c.51.29.77.1.78-.6a1.56 1.56 0 0 0 -.77-1.48l-1.08-.62v2.08l1.08.62"/><path d="m246.5 140.79-.03 6.47 2.49 1.43-.01 1.34-3.57-2.06.03-7.81z"/><path d="m253.59 144.87v1.34l-2.54-1.46-.01 1.63 2.04 1.17-.01 1.34-2.03-1.17-.01 2.16 2.62 1.5-.01 1.34-3.71-2.13.04-7.81z"/><path d="m258.83 147.87-.01 1.34-1.62-.93-.03 6.47-1.09-.63.03-6.46-1.62-.94v-1.34z"/><path d="m263.39 150.5-.01 1.34-2.53-1.46-.01 1.64 2.04 1.17-.01 1.33-2.03-1.17-.02 2.16 2.63 1.51-.01 1.33-3.71-2.13.04-7.81z"/><path d="m266.31 152.17a6.2 6.2 0 0 1 2.71 5.47c0 2.73-1.37 3.13-2.75 2.34l-1.83-1.05v-7.81zm1 6.53c.4-.13.65-.7.65-1.7a4.35 4.35 0 0 0 -.63-2.43 3.9 3.9 0 0 0 -1.32-1.26l-.4-.23v5.13l.4.23a1.62 1.62 0 0 0 1.33.26"/></g><path d="m119.51 165.42v-20.55l18.4-10.28v20.41z" fill="#b24f28"/><path d="m119.51 144.87-17.9-10.28s-.5 20.72 0 21 17.9 9.78 17.9 9.78z" fill="#c96336"/><path d="m101.61 134.59 17.9-10.94 18.4 10.94-18.4 10.28z" fill="#db7d58"/><path d="m108.43 130.43 18.63 10.22v10.72l5.36-2.7v-11.02l-18.63-10.5z" fill="#fdedcb"/><path d="m71.89 94.54c-12.58.87-11.92 21.21-12.77 29.65-.21 2.12 3.05 2.83 3.27.69.71-7 .24-16.56 4.15-22.74 1.21-1.91 2.64-3.79 5.12-4a5.51 5.51 0 0 1 4.1 1.61c1.1 1 1.69 4.93 1.87 6.1a50 50 0 0 1 .22 13.16c-.22 2.12 3 2.83 3.27.69.7-6.6 1.97-25.94-9.23-25.16z" fill="#8ccc00"/><path d="m90.7 108.19 3.78 6.3 7.57 1.58-5.68 19.54-16.07-10.4" fill="#dd842a"/><path d="m51.93 129.62 38.77-21.43-1.26 31.83-29.63 2.84z" fill="#c13d3d"/><path d="m65.8 134.35 5.99 60.2 36.24-21.74-5.98-56.74z" fill="#68e1fd"/><path d="m65.8 134.35-4.1-4.73h-9.77l-4.1 52.64 10.52 4.85 13.44 7.44z" fill="#68e1fd"/><path d="m65.8 134.35-4.1-4.73h-9.77l-4.1 52.64 10.52 4.85 13.44 7.44z" fill="#42210b" opacity=".14"/><path d="m88.08 104.6c-12.61.12-13.17 20.46-14.52 28.83-.34 2.1 2.88 3 3.22.89 1.13-7 1.23-16.51 5.5-22.46 1.75-2.44 4.82-4.49 7.84-2.89 2.7 1.43 2.74 4.63 3 7.3a50 50 0 0 1 -.57 13.15c-.35 2.1 2.87 3 3.22.89 1.11-6.59 3.54-25.81-7.69-25.71z" fill="#8ccc00"/><path d="m240.24 247.45-6.38-8.86-8.35-2.93-12.78 5.64-19.91 12.48 16 11.09c10.4-5.96 21.18-11.15 31.42-17.42z" fill="url(#d)" opacity=".48"/><path d="m208.45 175.32a12.21 12.21 0 0 1 5.94 1.16 9.66 9.66 0 0 1 4.19 4.78c.91 1.92 1.32 4.66 3.22 5.9a5.59 5.59 0 0 1 1.88 1.63 4.9 4.9 0 0 1 .58 4.56c-.84 1.69-4.36 2.72-6 2.41" fill="#8fdb5e"/><path d="m206.89 175.53a11.47 11.47 0 0 0 -10.12 8.68 15.15 15.15 0 0 0 -.07 7.15c.46 1.9 1.58 5.19 3.9 5.33 3.13.19 4.15-2.74 5.14-5.14s2-5.05 4.53-6a6.74 6.74 0 0 1 7.23 1.63z" fill="#1e8c0e"/><path d="m221.2 188.25c-1.89-2.45-3.46-5.12-5.29-7.61a22.65 22.65 0 0 0 -3.67-4.44c-4.35-2.11-9.83-.18-13 3.53.44.13 1.06.16 1.39.28a12.4 12.4 0 0 1 5 3.53c1.93 2.13 3.43 4.74 5.13 7 2.77 3.68 6.44 6.7 11.18 4.5 2.98-1.4.6-5.04-.74-6.79z" fill="#8fdb5e"/><path d="m236.57 156.76s9.81-.77 9.62 14.74-14.84 5.31-11.62-4" fill="#1e8c0e"/><path d="m235.15 172c-.11-4.72 5.2-8.17 9.67-8.77-.71-2.71-3.46-7.07-8.87-6.93-6.71.17-11.75 7-12.88 15s4.93 13.19 4.93 13.19l3.24 2.76c5.98-2.33 3.76-10.92 3.91-15.25z" fill="#8fdb5e"/><path d="m261.86 183.13a20.48 20.48 0 0 0 -2.27-8.43 9.28 9.28 0 0 0 -6.38-4.94l-5.52 10.63s8.23-14.39 4.87-3.31 7.72 23.51 9.24 7c.03-.34.04-.64.06-.95z" fill="#1e8c0e"/><path d="m222.84 210.81s-7.38 4.8-5.33 16a61.67 61.67 0 0 0 3.28 11.39c1.43 3.65 2.48 8.37 6.16 10.43 3.43 1.92 8.74 2.27 12.2.16 3.17-1.93 4.29-6.32 5.46-9.59a59.52 59.52 0 0 0 2.83-12.39c3.48-27.11-24.6-16-24.6-16z" fill="#68e1fd"/><ellipse cx="232.78" cy="212.45" fill="#34323d" rx="10.76" ry="3.89"/><path d="m233.65 191.71c-1.5-3.63-4.31-6.68-5.2-10.57a13.83 13.83 0 0 1 5.55-14.14c.82-.6 0-2-.8-1.37-6.88 5-8.21 13.53-4.2 20.8 1.24 2.25 2.87 4.41 3.63 6.9 1 3.24-.12 5.58-1.64 8a9.22 9.22 0 0 0 -2.39-6.52c-1.79-1.66-4.43-1.94-6.64-2.68-4.29-1.45-8.06-3.9-8.79-8.68-.15-1-1.69-.58-1.54.42.6 3.91 3.17 6.7 6.62 8.48a46.1 46.1 0 0 0 6.39 2.22 7.43 7.43 0 0 1 4.21 4.12c1 2.34.33 3.95-.25 6.22-.74 2.95-1.92 5.48.11 8.27.6.82 2 0 1.37-.8-3.23-4.45 1.93-8.68 3.67-12.51a9.84 9.84 0 0 0 -.1-8.16z" fill="#1e8c0e"/><path d="m253.51 182c-6.8-1.2-11.43 4.07-11 10.66a25 25 0 0 0 .91 4.88c.31 1.15 1.1 3.09.9 4.23a6.43 6.43 0 0 1 -3.89 4.55c-3 1.4-4.85 3.07-5.74 6.31a.8.8 0 0 0 1.54.42c1.57-5.76 9.62-4.93 9.68-11.28 0-3.1-1.62-6-1.81-9.11-.33-5.42 3.21-10.14 9-9.12.99.13 1.42-1.41.41-1.54z" fill="#1e8c0e"/><path d="m259.59 174.7c-2.64-4.86-7.43-6-12.12-4.55a15.47 15.47 0 0 0 -1.89.92c-11.82 8.75-3.43 28.51-1.61 28.36 6-.5 5.4-4 7.41-13.94a9.35 9.35 0 0 1 9.41-7.92 17.51 17.51 0 0 0 -1.2-2.87z" fill="#8fdb5e"/><path d="m257 171.48a9.85 9.85 0 0 0 -10.07 4.83c-4.32 7.22-3.32 15.64-2.75 23.61.07 1 1.67 1 1.59 0-.42-5.76-1.23-11.46.34-17.12.77-2.77 1.69-5.86 3.91-7.85a8.16 8.16 0 0 1 8.89-1.27l-.6-.82c-.44-.46-.88-.92-1.31-1.38z" fill="#1e8c0e"/><path d="m167.44 221.72c0 .2 4.22 9.83 5.17 10.43s3.87-1.28 4.87-.22 2.28 3.33.07 4.27-8.79 1.84-10 1.32a20.33 20.33 0 0 1 -3.25-2.2s-.62-5.16-1.31-4.45-.44 6.27-.93 6.43a5.4 5.4 0 0 1 -1.93-.28l.63-16.27" fill="#225870"/><path d="m149.17 213.07c0 .2 4.57 9.67 5.54 10.24s3.82-1.42 4.86-.39 2.4 3.24.22 4.27-8.72 2.15-9.93 1.67a20.33 20.33 0 0 1 -3.33-2.08s-.8-5.13-1.46-4.4-.22 6.29-.7 6.46a5.4 5.4 0 0 1 -1.93-.21v-16.28" fill="#225870"/><path d="m165.25 133.28s13.45 68.9 12.34 84.91c0 0-2.67 10.67-25.78 7.11 0 0-2-8-1.11-21.56s3.3-70.46 3.3-70.46z" fill="#42210b"/><path d="m162.81 214.71-3.48-82.22-13.91-1.29s-6.06 21.19-4.73 31.41-1.56 23.78-2.22 30.9c-.6 6.38-.84 17.42 1.37 22.34 7.46 2.15 15.53 1.42 22.97-1.14z" fill="#42210b"/><path d="m150.83 221.39a137.48 137.48 0 0 1 -2.33-15.61 55.57 55.57 0 0 1 -.05-7.7 75 75 0 0 1 1.13-7.87 57.13 57.13 0 0 0 .64-14.14c-.36-4.85-1.1-9.66-1.56-14.49a52.18 52.18 0 0 1 .53-16.35c.15-.7-.92-1-1.07-.3-2.15 9.66-.08 19.45.83 29.12a58.1 58.1 0 0 1 -.28 15c-.4 2.43-.9 4.85-1.16 7.3a51.24 51.24 0 0 0 -.18 7.91 127.92 127.92 0 0 0 2.46 17.4c.1.73 1.21.44 1.04-.27z" fill="#fff"/><path d="m151.69 97.8c1.39-.56 22.58-25.75 23.61-25.28s6.76 8.57 3.84 13-22.43 24.66-22.43 24.66" fill="#f25555"/><path d="m180.3 116.93-4.72-2.01 4.1-24.99 13.5 6.31-1.58 11.76-1.98 12.06-9.32-3.13 1.47-1.89" fill="#124577"/><path d="m156.14 97.38c1.31.48 7 .48 8.86 5.79a119.92 119.92 0 0 1 3.27 12l13.68-7.76s.82 12-.82 15.1-9.59 9.8-16.13 5.92c0 0 .61 4.69 0 6.12s-15.65 3.16-19.12-1.33-1.09-25.82-1.09-25.82" fill="#ff6161"/><path d="m181.72 113.49c-.22-1.72-.28-3.46-.45-5.19a8.7 8.7 0 0 0 1.29-1.23c.47-.5.92-1 1.36-1.55.28-.57.57-1.14.88-1.71l.34-.71c.43-.89.82-2.3 1.84-2.7a1.33 1.33 0 0 1 1.83 1c.17 1.55-2.47 4.87.65 4.78a11.14 11.14 0 0 1 1.76.05c1.19.16 2.29.74 1.85 2.11a2.11 2.11 0 0 1 -.27.54 1.6 1.6 0 0 1 1 2.13 1.77 1.77 0 0 1 -1 1 1.14 1.14 0 0 1 0 1.46 1.74 1.74 0 0 1 -1.1.68 1.44 1.44 0 0 1 -.07.7c-.39 1.06-1.79 1.43-2.77 1.61a32.48 32.48 0 0 1 -6.66.18c-.2-1.02-.35-2.08-.48-3.15z" fill="#f7931e"/><path d="m187.31 69.82c1.36 1.25 1.2 3.08.72 4.89a.63.63 0 0 0 -.37.14 29.24 29.24 0 0 1 -3.28 2 21.18 21.18 0 0 1 -2.75 1.26 7.7 7.7 0 0 0 -2.63 1.57 40.5 40.5 0 0 0 -1.88-4.84c3.23-3 6-5.13 8.67-8.61.29-.38.94-1.59 1.33-1.54a.88.88 0 0 1 1 .8c.23 1.55-1 2.82-2 3.92.02.04 1.24.36 1.19.41z" fill="#f7931e"/><path d="m186.8 71.17c-.33-.28.14-.75.47-.47a4.55 4.55 0 0 1 .73.78 3.53 3.53 0 0 1 .72 1.31 3.35 3.35 0 0 1 .05.35.35.35 0 0 1 0 .15.88.88 0 0 1 -.2.67c-.33.31-.76 0-1-.28a3.32 3.32 0 0 1 -.66-1.31c-.1-.36-.29-.81 0-1.12z" fill="#f7931e"/><path d="m179.89 79.23a5.63 5.63 0 0 1 3-1.6 5.07 5.07 0 0 0 2.27-.8 3.41 3.41 0 0 0 .94-1.12.25.25 0 0 0 .24.22 1.59 1.59 0 0 0 1.85-1 1.55 1.55 0 0 0 0-.44 1.35 1.35 0 0 0 1.14-1.1 2.45 2.45 0 0 0 -.34-1.35 11.71 11.71 0 0 0 -.95-1.72 1 1 0 0 0 -.51-.95c-1.13-.82-2.76.87-3.53 1.54-.33.28.15.75.47.47s.78-.65 1.19-.94l.05-.06a2 2 0 0 1 .71-.51.71.71 0 0 1 .94.64.94.94 0 0 1 -.36.67c-.08.1-.19.21-.32.38a7.27 7.27 0 0 0 -.45.57c-.59.93-.26 1.88-.59 2.87-.55 1.66-2.07 1.71-3.49 2.09a6.09 6.09 0 0 0 -2.75 1.65.33.33 0 0 0 .49.49zm7.32-7.23a8.36 8.36 0 0 0 .58-.82c.18.3.35.61.51.93a2.63 2.63 0 0 1 .39.93c0 .12-.2 1-.51.85h-.08a10.4 10.4 0 0 0 -.89-1.89zm-1 3.38c.3-.85 0-1.78.42-2.6l.1-.19a10 10 0 0 1 .57 1.3c.26.74.13 1.56-.84 1.43a.35.35 0 0 0 -.22.03z" fill="#42210b"/><path d="m164.1 80.48c.85.54.82 14.05-3 15.72-5 2.18-9.05-3.76-9.52-6.95s2.61-15.04 12.52-8.77z" fill="#f7931e"/><path d="m137.63 102.25a5.9 5.9 0 0 0 1.79-1.81 8 8 0 0 0 .32-2.77c.13-2.28.72-4.7 2.83-6 1.34-.8 3.25-.1 4.37-1.32 1.27-1.39.85-3.43 1-5.13.9-8.83 13.91-10.43 18.1-3.24a5.19 5.19 0 0 1 -1.53 7 5.12 5.12 0 0 1 -2.07.81c-1.08.17-2.13.14-2.6 1.31-.69 1.74.58 3.54 1.21 5.1 1 2.41 1.29 5.88-1.07 7.63a12.1 12.1 0 0 1 -3.8 1.4 3 3 0 0 0 -1.49.83c-.63.79-.23 1.88-.1 2.77a4.36 4.36 0 0 1 0 1.42 3 3 0 0 1 -.72 2.51c-1.41 1.72-4 1.77-6.06 1.67a18.91 18.91 0 0 1 -6.9-1.7c-1.91-.87-4.28-2.21-5.26-4.15-1.16-2.34.16-4.78 1.98-6.33z" fill="#42210b"/><path d="m159.78 114.19a28.84 28.84 0 0 0 1.26 8.12 9.73 9.73 0 0 0 4.37 5.77c.43.26 0 .93-.39.67a10.25 10.25 0 0 1 -4.53-5.65 28.55 28.55 0 0 1 -1.49-8.92.39.39 0 0 1 .78.01z" fill="#124577" opacity=".7"/></svg>